<svg width="40" height="40" viewBox="0 0 40 40" fill="none" xmlns="http://www.w3.org/2000/svg">
<mask id="mask0_4_364" style="mask-type:alpha" maskUnits="userSpaceOnUse" x="0" y="0" width="40" height="40">
<rect width="40" height="40" fill="#D9D9D9"/>
</mask>
<g mask="url(#mask0_4_364)">
<path d="M31.6667 35C28.1667 35 24.7431 34.1458 21.3958 32.4375C18.0486 30.7292 15.0347 28.4653 12.3542 25.6458C9.67361 22.8264 7.48611 19.7986 5.79167 16.5625C4.09722 13.3264 3.25 9.97222 3.25 6.5C3.25 5.86111 3.47917 5.32639 3.9375 4.89583C4.39583 4.46528 4.94444 4.25 5.58333 4.25H11.9167C12.4167 4.25 12.8542 4.42361 13.2292 4.77083C13.6042 5.11806 13.8333 5.52778 13.9167 6L14.9167 11.25C14.9722 11.6944 14.9653 12.0972 14.8958 12.4583C14.8264 12.8194 14.6667 13.1389 14.4167 13.4167L10.3333 17.5833C11.5833 19.6667 13.0486 21.5833 14.7292 23.3333C16.4097 25.0833 18.3611 26.6944 20.5833 28.1667L24.5833 24.1667C24.8611 23.8889 25.2014 23.6667 25.6042 23.5C26.0069 23.3333 26.4167 23.2778 26.8333 23.3333L31.9167 24.4167C32.3611 24.5278 32.7431 24.7639 33.0625 25.125C33.3819 25.4861 33.5556 25.9167 33.5833 26.4167V32.5833C33.5833 33.2222 33.3681 33.7708 32.9375 34.2292C32.5069 34.6875 31.9722 34.9167 31.3333 34.9167L31.6667 35Z" fill="#C7A64E"/>
</g>
</svg>
